<svg xmlns="http://www.w3.org/2000/svg" version="1.1" xmlns:xlink="http://www.w3.org/1999/xlink" xmlns:svgjs="http://svgjs.dev/svgjs" width="2000" height="1000" preserveAspectRatio="none" viewBox="0 0 2000 1000"><g mask="url(&quot;#SvgjsMask1360&quot;)" fill="none"><path d="M100.25 324.44L198.11 380.94L198.11 493.94L100.25 550.44L2.39 493.94L2.39 380.94zM100.25 663.44L198.11 719.94L198.11 832.94L100.25 889.44L2.39 832.94L2.39 719.94zM295.98 -14.56L393.84 41.94L393.84 154.94L295.98 211.44L198.11 154.94L198.11 41.94zM295.98 324.44L393.84 380.94L393.84 493.94L295.98 550.44L198.11 493.94L198.11 380.94zM393.84 832.94L491.7 889.44L491.7 1002.44L393.84 1058.94L295.98 1002.44L295.98 889.44zM295.98 1002.44L393.84 1058.94L393.84 1171.94L295.98 1228.44L198.11 1171.94L198.11 1058.94zM491.7 -14.56L589.57 41.94L589.57 154.94L491.7 211.44L393.84 154.94L393.84 41.94zM491.7 663.44L589.57 719.94L589.57 832.94L491.7 889.44L393.84 832.94L393.84 719.94zM589.57 832.94L687.43 889.44L687.43 1002.44L589.57 1058.94L491.7 1002.44L491.7 889.44zM785.3 493.94L883.16 550.44L883.16 663.44L785.3 719.94L687.43 663.44L687.43 550.44zM687.43 663.44L785.3 719.94L785.3 832.94L687.43 889.44L589.57 832.94L589.57 719.94zM883.16 -14.56L981.02 41.94L981.02 154.94L883.16 211.44L785.3 154.94L785.3 41.94zM883.16 663.44L981.02 719.94L981.02 832.94L883.16 889.44L785.3 832.94L785.3 719.94zM981.02 832.94L1078.89 889.44L1078.89 1002.44L981.02 1058.94L883.16 1002.44L883.16 889.44zM883.16 1002.44L981.02 1058.94L981.02 1171.94L883.16 1228.44L785.3 1171.94L785.3 1058.94zM1176.75 154.94L1274.61 211.44L1274.61 324.44L1176.75 380.94L1078.89 324.44L1078.89 211.44zM1078.89 1002.44L1176.75 1058.94L1176.75 1171.94L1078.89 1228.44L981.02 1171.94L981.02 1058.94zM1274.61 -14.56L1372.48 41.94L1372.48 154.94L1274.61 211.44L1176.75 154.94L1176.75 41.94zM1372.48 154.94L1470.34 211.44L1470.34 324.44L1372.48 380.94L1274.61 324.44L1274.61 211.44zM1274.61 324.44L1372.48 380.94L1372.48 493.94L1274.61 550.44L1176.75 493.94L1176.75 380.94zM1372.48 493.94L1470.34 550.44L1470.34 663.44L1372.48 719.94L1274.61 663.44L1274.61 550.44zM1372.48 832.94L1470.34 889.44L1470.34 1002.44L1372.48 1058.94L1274.61 1002.44L1274.61 889.44zM1274.61 1002.44L1372.48 1058.94L1372.48 1171.94L1274.61 1228.44L1176.75 1171.94L1176.75 1058.94zM1568.2 832.94L1666.07 889.44L1666.07 1002.44L1568.2 1058.94L1470.34 1002.44L1470.34 889.44zM1666.07 324.44L1763.93 380.94L1763.93 493.94L1666.07 550.44L1568.2 493.94L1568.2 380.94zM1763.93 493.94L1861.8 550.44L1861.8 663.44L1763.93 719.94L1666.07 663.44L1666.07 550.44zM1763.93 832.94L1861.8 889.44L1861.8 1002.44L1763.93 1058.94L1666.07 1002.44L1666.07 889.44zM1666.07 1002.44L1763.93 1058.94L1763.93 1171.94L1666.07 1228.44L1568.2 1171.94L1568.2 1058.94zM1861.8 1002.44L1959.66 1058.94L1959.66 1171.94L1861.8 1228.44L1763.93 1171.94L1763.93 1058.94zM2057.52 -14.56L2155.39 41.94L2155.39 154.94L2057.52 211.44L1959.66 154.94L1959.66 41.94zM2057.52 663.44L2155.39 719.94L2155.39 832.94L2057.52 889.44L1959.66 832.94L1959.66 719.94zM2155.39 832.94L2253.25 889.44L2253.25 1002.44L2155.39 1058.94L2057.52 1002.44L2057.52 889.44zM2057.52 1002.44L2155.39 1058.94L2155.39 1171.94L2057.52 1228.44L1959.66 1171.94L1959.66 1058.94z" stroke="rgba(67, 187, 201, 1)" stroke-width="2"></path><path d="M88.95 324.44 a11.3 11.3 0 1 0 22.6 0 a11.3 11.3 0 1 0 -22.6 0zM186.81 380.94 a11.3 11.3 0 1 0 22.6 0 a11.3 11.3 0 1 0 -22.6 0zM186.81 493.94 a11.3 11.3 0 1 0 22.6 0 a11.3 11.3 0 1 0 -22.6 0zM88.95 550.44 a11.3 11.3 0 1 0 22.6 0 a11.3 11.3 0 1 0 -22.6 0zM-8.91 493.94 a11.3 11.3 0 1 0 22.6 0 a11.3 11.3 0 1 0 -22.6 0zM-8.91 380.94 a11.3 11.3 0 1 0 22.6 0 a11.3 11.3 0 1 0 -22.6 0zM88.95 663.44 a11.3 11.3 0 1 0 22.6 0 a11.3 11.3 0 1 0 -22.6 0zM186.81 719.94 a11.3 11.3 0 1 0 22.6 0 a11.3 11.3 0 1 0 -22.6 0zM186.81 832.94 a11.3 11.3 0 1 0 22.6 0 a11.3 11.3 0 1 0 -22.6 0zM88.95 889.44 a11.3 11.3 0 1 0 22.6 0 a11.3 11.3 0 1 0 -22.6 0zM-8.91 832.94 a11.3 11.3 0 1 0 22.6 0 a11.3 11.3 0 1 0 -22.6 0zM-8.91 719.94 a11.3 11.3 0 1 0 22.6 0 a11.3 11.3 0 1 0 -22.6 0zM284.68 -14.56 a11.3 11.3 0 1 0 22.6 0 a11.3 11.3 0 1 0 -22.6 0zM382.54 41.94 a11.3 11.3 0 1 0 22.6 0 a11.3 11.3 0 1 0 -22.6 0zM382.54 154.94 a11.3 11.3 0 1 0 22.6 0 a11.3 11.3 0 1 0 -22.6 0zM284.68 211.44 a11.3 11.3 0 1 0 22.6 0 a11.3 11.3 0 1 0 -22.6 0zM186.81 154.94 a11.3 11.3 0 1 0 22.6 0 a11.3 11.3 0 1 0 -22.6 0zM186.81 41.94 a11.3 11.3 0 1 0 22.6 0 a11.3 11.3 0 1 0 -22.6 0zM284.68 324.44 a11.3 11.3 0 1 0 22.6 0 a11.3 11.3 0 1 0 -22.6 0zM382.54 380.94 a11.3 11.3 0 1 0 22.6 0 a11.3 11.3 0 1 0 -22.6 0zM382.54 493.94 a11.3 11.3 0 1 0 22.6 0 a11.3 11.3 0 1 0 -22.6 0zM284.68 550.44 a11.3 11.3 0 1 0 22.6 0 a11.3 11.3 0 1 0 -22.6 0zM382.54 832.94 a11.3 11.3 0 1 0 22.6 0 a11.3 11.3 0 1 0 -22.6 0zM480.4 889.44 a11.3 11.3 0 1 0 22.6 0 a11.3 11.3 0 1 0 -22.6 0zM480.4 1002.44 a11.3 11.3 0 1 0 22.6 0 a11.3 11.3 0 1 0 -22.6 0zM382.54 1058.94 a11.3 11.3 0 1 0 22.6 0 a11.3 11.3 0 1 0 -22.6 0zM284.68 1002.44 a11.3 11.3 0 1 0 22.6 0 a11.3 11.3 0 1 0 -22.6 0zM284.68 889.44 a11.3 11.3 0 1 0 22.6 0 a11.3 11.3 0 1 0 -22.6 0zM382.54 1171.94 a11.3 11.3 0 1 0 22.6 0 a11.3 11.3 0 1 0 -22.6 0zM284.68 1228.44 a11.3 11.3 0 1 0 22.6 0 a11.3 11.3 0 1 0 -22.6 0zM186.81 1171.94 a11.3 11.3 0 1 0 22.6 0 a11.3 11.3 0 1 0 -22.6 0zM186.81 1058.94 a11.3 11.3 0 1 0 22.6 0 a11.3 11.3 0 1 0 -22.6 0zM480.4 -14.56 a11.3 11.3 0 1 0 22.6 0 a11.3 11.3 0 1 0 -22.6 0zM578.27 41.94 a11.3 11.3 0 1 0 22.6 0 a11.3 11.3 0 1 0 -22.6 0zM578.27 154.94 a11.3 11.3 0 1 0 22.6 0 a11.3 11.3 0 1 0 -22.6 0zM480.4 211.44 a11.3 11.3 0 1 0 22.6 0 a11.3 11.3 0 1 0 -22.6 0zM480.4 663.44 a11.3 11.3 0 1 0 22.6 0 a11.3 11.3 0 1 0 -22.6 0zM578.27 719.94 a11.3 11.3 0 1 0 22.6 0 a11.3 11.3 0 1 0 -22.6 0zM578.27 832.94 a11.3 11.3 0 1 0 22.6 0 a11.3 11.3 0 1 0 -22.6 0zM382.54 719.94 a11.3 11.3 0 1 0 22.6 0 a11.3 11.3 0 1 0 -22.6 0zM676.13 889.44 a11.3 11.3 0 1 0 22.6 0 a11.3 11.3 0 1 0 -22.6 0zM676.13 1002.44 a11.3 11.3 0 1 0 22.6 0 a11.3 11.3 0 1 0 -22.6 0zM578.27 1058.94 a11.3 11.3 0 1 0 22.6 0 a11.3 11.3 0 1 0 -22.6 0zM774 493.94 a11.3 11.3 0 1 0 22.6 0 a11.3 11.3 0 1 0 -22.6 0zM871.86 550.44 a11.3 11.3 0 1 0 22.6 0 a11.3 11.3 0 1 0 -22.6 0zM871.86 663.44 a11.3 11.3 0 1 0 22.6 0 a11.3 11.3 0 1 0 -22.6 0zM774 719.94 a11.3 11.3 0 1 0 22.6 0 a11.3 11.3 0 1 0 -22.6 0zM676.13 663.44 a11.3 11.3 0 1 0 22.6 0 a11.3 11.3 0 1 0 -22.6 0zM676.13 550.44 a11.3 11.3 0 1 0 22.6 0 a11.3 11.3 0 1 0 -22.6 0zM774 832.94 a11.3 11.3 0 1 0 22.6 0 a11.3 11.3 0 1 0 -22.6 0zM871.86 -14.56 a11.3 11.3 0 1 0 22.6 0 a11.3 11.3 0 1 0 -22.6 0zM969.72 41.94 a11.3 11.3 0 1 0 22.6 0 a11.3 11.3 0 1 0 -22.6 0zM969.72 154.94 a11.3 11.3 0 1 0 22.6 0 a11.3 11.3 0 1 0 -22.6 0zM871.86 211.44 a11.3 11.3 0 1 0 22.6 0 a11.3 11.3 0 1 0 -22.6 0zM774 154.94 a11.3 11.3 0 1 0 22.6 0 a11.3 11.3 0 1 0 -22.6 0zM774 41.94 a11.3 11.3 0 1 0 22.6 0 a11.3 11.3 0 1 0 -22.6 0zM969.72 719.94 a11.3 11.3 0 1 0 22.6 0 a11.3 11.3 0 1 0 -22.6 0zM969.72 832.94 a11.3 11.3 0 1 0 22.6 0 a11.3 11.3 0 1 0 -22.6 0zM871.86 889.44 a11.3 11.3 0 1 0 22.6 0 a11.3 11.3 0 1 0 -22.6 0zM1067.59 889.44 a11.3 11.3 0 1 0 22.6 0 a11.3 11.3 0 1 0 -22.6 0zM1067.59 1002.44 a11.3 11.3 0 1 0 22.6 0 a11.3 11.3 0 1 0 -22.6 0zM969.72 1058.94 a11.3 11.3 0 1 0 22.6 0 a11.3 11.3 0 1 0 -22.6 0zM871.86 1002.44 a11.3 11.3 0 1 0 22.6 0 a11.3 11.3 0 1 0 -22.6 0zM969.72 1171.94 a11.3 11.3 0 1 0 22.6 0 a11.3 11.3 0 1 0 -22.6 0zM871.86 1228.44 a11.3 11.3 0 1 0 22.6 0 a11.3 11.3 0 1 0 -22.6 0zM774 1171.94 a11.3 11.3 0 1 0 22.6 0 a11.3 11.3 0 1 0 -22.6 0zM774 1058.94 a11.3 11.3 0 1 0 22.6 0 a11.3 11.3 0 1 0 -22.6 0zM1165.45 154.94 a11.3 11.3 0 1 0 22.6 0 a11.3 11.3 0 1 0 -22.6 0zM1263.31 211.44 a11.3 11.3 0 1 0 22.6 0 a11.3 11.3 0 1 0 -22.6 0zM1263.31 324.44 a11.3 11.3 0 1 0 22.6 0 a11.3 11.3 0 1 0 -22.6 0zM1165.45 380.94 a11.3 11.3 0 1 0 22.6 0 a11.3 11.3 0 1 0 -22.6 0zM1067.59 324.44 a11.3 11.3 0 1 0 22.6 0 a11.3 11.3 0 1 0 -22.6 0zM1067.59 211.44 a11.3 11.3 0 1 0 22.6 0 a11.3 11.3 0 1 0 -22.6 0zM1165.45 1058.94 a11.3 11.3 0 1 0 22.6 0 a11.3 11.3 0 1 0 -22.6 0zM1165.45 1171.94 a11.3 11.3 0 1 0 22.6 0 a11.3 11.3 0 1 0 -22.6 0zM1067.59 1228.44 a11.3 11.3 0 1 0 22.6 0 a11.3 11.3 0 1 0 -22.6 0zM1263.31 -14.56 a11.3 11.3 0 1 0 22.6 0 a11.3 11.3 0 1 0 -22.6 0zM1361.18 41.94 a11.3 11.3 0 1 0 22.6 0 a11.3 11.3 0 1 0 -22.6 0zM1361.18 154.94 a11.3 11.3 0 1 0 22.6 0 a11.3 11.3 0 1 0 -22.6 0zM1165.45 41.94 a11.3 11.3 0 1 0 22.6 0 a11.3 11.3 0 1 0 -22.6 0zM1459.04 211.44 a11.3 11.3 0 1 0 22.6 0 a11.3 11.3 0 1 0 -22.6 0zM1459.04 324.44 a11.3 11.3 0 1 0 22.6 0 a11.3 11.3 0 1 0 -22.6 0zM1361.18 380.94 a11.3 11.3 0 1 0 22.6 0 a11.3 11.3 0 1 0 -22.6 0zM1361.18 493.94 a11.3 11.3 0 1 0 22.6 0 a11.3 11.3 0 1 0 -22.6 0zM1263.31 550.44 a11.3 11.3 0 1 0 22.6 0 a11.3 11.3 0 1 0 -22.6 0zM1165.45 493.94 a11.3 11.3 0 1 0 22.6 0 a11.3 11.3 0 1 0 -22.6 0zM1459.04 550.44 a11.3 11.3 0 1 0 22.6 0 a11.3 11.3 0 1 0 -22.6 0zM1459.04 663.44 a11.3 11.3 0 1 0 22.6 0 a11.3 11.3 0 1 0 -22.6 0zM1361.18 719.94 a11.3 11.3 0 1 0 22.6 0 a11.3 11.3 0 1 0 -22.6 0zM1263.31 663.44 a11.3 11.3 0 1 0 22.6 0 a11.3 11.3 0 1 0 -22.6 0zM1361.18 832.94 a11.3 11.3 0 1 0 22.6 0 a11.3 11.3 0 1 0 -22.6 0zM1459.04 889.44 a11.3 11.3 0 1 0 22.6 0 a11.3 11.3 0 1 0 -22.6 0zM1459.04 1002.44 a11.3 11.3 0 1 0 22.6 0 a11.3 11.3 0 1 0 -22.6 0zM1361.18 1058.94 a11.3 11.3 0 1 0 22.6 0 a11.3 11.3 0 1 0 -22.6 0zM1263.31 1002.44 a11.3 11.3 0 1 0 22.6 0 a11.3 11.3 0 1 0 -22.6 0zM1263.31 889.44 a11.3 11.3 0 1 0 22.6 0 a11.3 11.3 0 1 0 -22.6 0zM1361.18 1171.94 a11.3 11.3 0 1 0 22.6 0 a11.3 11.3 0 1 0 -22.6 0zM1263.31 1228.44 a11.3 11.3 0 1 0 22.6 0 a11.3 11.3 0 1 0 -22.6 0zM1556.9 832.94 a11.3 11.3 0 1 0 22.6 0 a11.3 11.3 0 1 0 -22.6 0zM1654.77 889.44 a11.3 11.3 0 1 0 22.6 0 a11.3 11.3 0 1 0 -22.6 0zM1654.77 1002.44 a11.3 11.3 0 1 0 22.6 0 a11.3 11.3 0 1 0 -22.6 0zM1556.9 1058.94 a11.3 11.3 0 1 0 22.6 0 a11.3 11.3 0 1 0 -22.6 0zM1654.77 324.44 a11.3 11.3 0 1 0 22.6 0 a11.3 11.3 0 1 0 -22.6 0zM1752.63 380.94 a11.3 11.3 0 1 0 22.6 0 a11.3 11.3 0 1 0 -22.6 0zM1752.63 493.94 a11.3 11.3 0 1 0 22.6 0 a11.3 11.3 0 1 0 -22.6 0zM1654.77 550.44 a11.3 11.3 0 1 0 22.6 0 a11.3 11.3 0 1 0 -22.6 0zM1556.9 493.94 a11.3 11.3 0 1 0 22.6 0 a11.3 11.3 0 1 0 -22.6 0zM1556.9 380.94 a11.3 11.3 0 1 0 22.6 0 a11.3 11.3 0 1 0 -22.6 0zM1850.5 550.44 a11.3 11.3 0 1 0 22.6 0 a11.3 11.3 0 1 0 -22.6 0zM1850.5 663.44 a11.3 11.3 0 1 0 22.6 0 a11.3 11.3 0 1 0 -22.6 0zM1752.63 719.94 a11.3 11.3 0 1 0 22.6 0 a11.3 11.3 0 1 0 -22.6 0zM1654.77 663.44 a11.3 11.3 0 1 0 22.6 0 a11.3 11.3 0 1 0 -22.6 0zM1752.63 832.94 a11.3 11.3 0 1 0 22.6 0 a11.3 11.3 0 1 0 -22.6 0zM1850.5 889.44 a11.3 11.3 0 1 0 22.6 0 a11.3 11.3 0 1 0 -22.6 0zM1850.5 1002.44 a11.3 11.3 0 1 0 22.6 0 a11.3 11.3 0 1 0 -22.6 0zM1752.63 1058.94 a11.3 11.3 0 1 0 22.6 0 a11.3 11.3 0 1 0 -22.6 0zM1752.63 1171.94 a11.3 11.3 0 1 0 22.6 0 a11.3 11.3 0 1 0 -22.6 0zM1654.77 1228.44 a11.3 11.3 0 1 0 22.6 0 a11.3 11.3 0 1 0 -22.6 0zM1556.9 1171.94 a11.3 11.3 0 1 0 22.6 0 a11.3 11.3 0 1 0 -22.6 0zM1948.36 1058.94 a11.3 11.3 0 1 0 22.6 0 a11.3 11.3 0 1 0 -22.6 0zM1948.36 1171.94 a11.3 11.3 0 1 0 22.6 0 a11.3 11.3 0 1 0 -22.6 0zM1850.5 1228.44 a11.3 11.3 0 1 0 22.6 0 a11.3 11.3 0 1 0 -22.6 0zM2046.22 -14.56 a11.3 11.3 0 1 0 22.6 0 a11.3 11.3 0 1 0 -22.6 0zM2144.09 41.94 a11.3 11.3 0 1 0 22.6 0 a11.3 11.3 0 1 0 -22.6 0zM2144.09 154.94 a11.3 11.3 0 1 0 22.6 0 a11.3 11.3 0 1 0 -22.6 0zM2046.22 211.44 a11.3 11.3 0 1 0 22.6 0 a11.3 11.3 0 1 0 -22.6 0zM1948.36 154.94 a11.3 11.3 0 1 0 22.6 0 a11.3 11.3 0 1 0 -22.6 0zM1948.36 41.94 a11.3 11.3 0 1 0 22.6 0 a11.3 11.3 0 1 0 -22.6 0zM2046.22 663.44 a11.3 11.3 0 1 0 22.6 0 a11.3 11.3 0 1 0 -22.6 0zM2144.09 719.94 a11.3 11.3 0 1 0 22.6 0 a11.3 11.3 0 1 0 -22.6 0zM2144.09 832.94 a11.3 11.3 0 1 0 22.6 0 a11.3 11.3 0 1 0 -22.6 0zM2046.22 889.44 a11.3 11.3 0 1 0 22.6 0 a11.3 11.3 0 1 0 -22.6 0zM1948.36 832.94 a11.3 11.3 0 1 0 22.6 0 a11.3 11.3 0 1 0 -22.6 0zM1948.36 719.94 a11.3 11.3 0 1 0 22.6 0 a11.3 11.3 0 1 0 -22.6 0zM2241.95 889.44 a11.3 11.3 0 1 0 22.6 0 a11.3 11.3 0 1 0 -22.6 0zM2241.95 1002.44 a11.3 11.3 0 1 0 22.6 0 a11.3 11.3 0 1 0 -22.6 0zM2144.09 1058.94 a11.3 11.3 0 1 0 22.6 0 a11.3 11.3 0 1 0 -22.6 0zM2046.22 1002.44 a11.3 11.3 0 1 0 22.6 0 a11.3 11.3 0 1 0 -22.6 0zM2144.09 1171.94 a11.3 11.3 0 1 0 22.6 0 a11.3 11.3 0 1 0 -22.6 0zM2046.22 1228.44 a11.3 11.3 0 1 0 22.6 0 a11.3 11.3 0 1 0 -22.6 0z" fill="rgba(67, 187, 201, 1)"></path><path d="M35.06 -5.39L70.57 15.11L70.57 56.11L35.06 76.61L-0.45 56.11L-0.45 15.11zM35.06 240.61L70.57 261.11L70.57 302.11L35.06 322.61L-0.45 302.11L-0.45 261.11zM70.57 425.11L106.08 445.61L106.08 486.61L70.57 507.11L35.06 486.61L35.06 445.61zM35.06 855.61L70.57 876.11L70.57 917.11L35.06 937.61L-0.45 917.11L-0.45 876.11zM141.58 425.11L177.09 445.61L177.09 486.61L141.58 507.11L106.08 486.61L106.08 445.61zM106.08 486.61L141.58 507.11L141.58 548.11L106.08 568.61L70.57 548.11L70.57 507.11zM106.08 609.61L141.58 630.11L141.58 671.11L106.08 691.61L70.57 671.11L70.57 630.11zM177.09 240.61L212.6 261.11L212.6 302.11L177.09 322.61L141.58 302.11L141.58 261.11zM177.09 732.61L212.6 753.11L212.6 794.11L177.09 814.61L141.58 794.11L141.58 753.11zM212.6 794.11L248.11 814.61L248.11 855.61L212.6 876.11L177.09 855.61L177.09 814.61zM177.09 855.61L212.6 876.11L212.6 917.11L177.09 937.61L141.58 917.11L141.58 876.11zM283.62 179.11L319.12 199.61L319.12 240.61L283.62 261.11L248.11 240.61L248.11 199.61zM248.11 363.61L283.62 384.11L283.62 425.11L248.11 445.61L212.6 425.11L212.6 384.11zM283.62 671.11L319.12 691.61L319.12 732.61L283.62 753.11L248.11 732.61L248.11 691.61zM354.63 56.11L390.14 76.61L390.14 117.61L354.63 138.11L319.12 117.61L319.12 76.61zM354.63 548.11L390.14 568.61L390.14 609.61L354.63 630.11L319.12 609.61L319.12 568.61zM319.12 609.61L354.63 630.11L354.63 671.11L319.12 691.61L283.62 671.11L283.62 630.11zM496.66 179.11L532.17 199.61L532.17 240.61L496.66 261.11L461.16 240.61L461.16 199.61zM461.16 240.61L496.66 261.11L496.66 302.11L461.16 322.61L425.65 302.11L425.65 261.11zM461.16 978.61L496.66 999.11L496.66 1040.11L461.16 1060.61L425.65 1040.11L425.65 999.11zM532.17 117.61L567.68 138.11L567.68 179.11L532.17 199.61L496.66 179.11L496.66 138.11zM567.68 548.11L603.19 568.61L603.19 609.61L567.68 630.11L532.17 609.61L532.17 568.61zM567.68 671.11L603.19 691.61L603.19 732.61L567.68 753.11L532.17 732.61L532.17 691.61zM567.68 917.11L603.19 937.61L603.19 978.61L567.68 999.11L532.17 978.61L532.17 937.61zM603.19 -5.39L638.7 15.11L638.7 56.11L603.19 76.61L567.68 56.11L567.68 15.11zM638.7 56.11L674.2 76.61L674.2 117.61L638.7 138.11L603.19 117.61L603.19 76.61zM638.7 302.11L674.2 322.61L674.2 363.61L638.7 384.11L603.19 363.61L603.19 322.61zM603.19 732.61L638.7 753.11L638.7 794.11L603.19 814.61L567.68 794.11L567.68 753.11zM638.7 794.11L674.2 814.61L674.2 855.61L638.7 876.11L603.19 855.61L603.19 814.61zM674.2 -5.39L709.71 15.11L709.71 56.11L674.2 76.61L638.7 56.11L638.7 15.11zM674.2 486.61L709.71 507.11L709.71 548.11L674.2 568.61L638.7 548.11L638.7 507.11zM674.2 609.61L709.71 630.11L709.71 671.11L674.2 691.61L638.7 671.11L638.7 630.11zM674.2 855.61L709.71 876.11L709.71 917.11L674.2 937.61L638.7 917.11L638.7 876.11zM709.71 917.11L745.22 937.61L745.22 978.61L709.71 999.11L674.2 978.61L674.2 937.61zM674.2 978.61L709.71 999.11L709.71 1040.11L674.2 1060.61L638.7 1040.11L638.7 999.11zM745.22 -5.39L780.73 15.11L780.73 56.11L745.22 76.61L709.71 56.11L709.71 15.11zM745.22 609.61L780.73 630.11L780.73 671.11L745.22 691.61L709.71 671.11L709.71 630.11zM780.73 794.11L816.24 814.61L816.24 855.61L780.73 876.11L745.22 855.61L745.22 814.61zM851.75 56.11L887.25 76.61L887.25 117.61L851.75 138.11L816.24 117.61L816.24 76.61zM851.75 302.11L887.25 322.61L887.25 363.61L851.75 384.11L816.24 363.61L816.24 322.61zM851.75 425.11L887.25 445.61L887.25 486.61L851.75 507.11L816.24 486.61L816.24 445.61zM851.75 671.11L887.25 691.61L887.25 732.61L851.75 753.11L816.24 732.61L816.24 691.61zM851.75 917.11L887.25 937.61L887.25 978.61L851.75 999.11L816.24 978.61L816.24 937.61zM887.25 -5.39L922.76 15.11L922.76 56.11L887.25 76.61L851.75 56.11L851.75 15.11zM887.25 240.61L922.76 261.11L922.76 302.11L887.25 322.61L851.75 302.11L851.75 261.11zM887.25 363.61L922.76 384.11L922.76 425.11L887.25 445.61L851.75 425.11L851.75 384.11zM922.76 425.11L958.27 445.61L958.27 486.61L922.76 507.11L887.25 486.61L887.25 445.61zM922.76 671.11L958.27 691.61L958.27 732.61L922.76 753.11L887.25 732.61L887.25 691.61zM887.25 732.61L922.76 753.11L922.76 794.11L887.25 814.61L851.75 794.11L851.75 753.11zM1064.79 56.11L1100.3 76.61L1100.3 117.61L1064.79 138.11L1029.29 117.61L1029.29 76.61zM1064.79 302.11L1100.3 322.61L1100.3 363.61L1064.79 384.11L1029.29 363.61L1029.29 322.61zM1029.29 363.61L1064.79 384.11L1064.79 425.11L1029.29 445.61L993.78 425.11L993.78 384.11zM1064.79 425.11L1100.3 445.61L1100.3 486.61L1064.79 507.11L1029.29 486.61L1029.29 445.61zM1029.29 486.61L1064.79 507.11L1064.79 548.11L1029.29 568.61L993.78 548.11L993.78 507.11zM1029.29 855.61L1064.79 876.11L1064.79 917.11L1029.29 937.61L993.78 917.11L993.78 876.11zM1100.3 117.61L1135.81 138.11L1135.81 179.11L1100.3 199.61L1064.79 179.11L1064.79 138.11zM1135.81 302.11L1171.32 322.61L1171.32 363.61L1135.81 384.11L1100.3 363.61L1100.3 322.61zM1135.81 425.11L1171.32 445.61L1171.32 486.61L1135.81 507.11L1100.3 486.61L1100.3 445.61zM1206.83 56.11L1242.33 76.61L1242.33 117.61L1206.83 138.11L1171.32 117.61L1171.32 76.61zM1171.32 240.61L1206.83 261.11L1206.83 302.11L1171.32 322.61L1135.81 302.11L1135.81 261.11zM1171.32 486.61L1206.83 507.11L1206.83 548.11L1171.32 568.61L1135.81 548.11L1135.81 507.11zM1171.32 609.61L1206.83 630.11L1206.83 671.11L1171.32 691.61L1135.81 671.11L1135.81 630.11zM1171.32 855.61L1206.83 876.11L1206.83 917.11L1171.32 937.61L1135.81 917.11L1135.81 876.11zM1206.83 917.11L1242.33 937.61L1242.33 978.61L1206.83 999.11L1171.32 978.61L1171.32 937.61zM1171.32 978.61L1206.83 999.11L1206.83 1040.11L1171.32 1060.61L1135.81 1040.11L1135.81 999.11zM1242.33 732.61L1277.84 753.11L1277.84 794.11L1242.33 814.61L1206.83 794.11L1206.83 753.11zM1313.35 -5.39L1348.86 15.11L1348.86 56.11L1313.35 76.61L1277.84 56.11L1277.84 15.11zM1313.35 117.61L1348.86 138.11L1348.86 179.11L1313.35 199.61L1277.84 179.11L1277.84 138.11zM1348.86 302.11L1384.37 322.61L1384.37 363.61L1348.86 384.11L1313.35 363.61L1313.35 322.61zM1313.35 363.61L1348.86 384.11L1348.86 425.11L1313.35 445.61L1277.84 425.11L1277.84 384.11zM1313.35 486.61L1348.86 507.11L1348.86 548.11L1313.35 568.61L1277.84 548.11L1277.84 507.11zM1348.86 548.11L1384.37 568.61L1384.37 609.61L1348.86 630.11L1313.35 609.61L1313.35 568.61zM1313.35 855.61L1348.86 876.11L1348.86 917.11L1313.35 937.61L1277.84 917.11L1277.84 876.11zM1313.35 978.61L1348.86 999.11L1348.86 1040.11L1313.35 1060.61L1277.84 1040.11L1277.84 999.11zM1384.37 117.61L1419.87 138.11L1419.87 179.11L1384.37 199.61L1348.86 179.11L1348.86 138.11zM1419.87 179.11L1455.38 199.61L1455.38 240.61L1419.87 261.11L1384.37 240.61L1384.37 199.61zM1419.87 302.11L1455.38 322.61L1455.38 363.61L1419.87 384.11L1384.37 363.61L1384.37 322.61zM1419.87 425.11L1455.38 445.61L1455.38 486.61L1419.87 507.11L1384.37 486.61L1384.37 445.61zM1384.37 486.61L1419.87 507.11L1419.87 548.11L1384.37 568.61L1348.86 548.11L1348.86 507.11zM1384.37 609.61L1419.87 630.11L1419.87 671.11L1384.37 691.61L1348.86 671.11L1348.86 630.11zM1419.87 794.11L1455.38 814.61L1455.38 855.61L1419.87 876.11L1384.37 855.61L1384.37 814.61zM1419.87 917.11L1455.38 937.61L1455.38 978.61L1419.87 999.11L1384.37 978.61L1384.37 937.61zM1455.38 117.61L1490.89 138.11L1490.89 179.11L1455.38 199.61L1419.87 179.11L1419.87 138.11zM1490.89 179.11L1526.4 199.61L1526.4 240.61L1490.89 261.11L1455.38 240.61L1455.38 199.61zM1455.38 609.61L1490.89 630.11L1490.89 671.11L1455.38 691.61L1419.87 671.11L1419.87 630.11zM1455.38 855.61L1490.89 876.11L1490.89 917.11L1455.38 937.61L1419.87 917.11L1419.87 876.11zM1526.4 -5.39L1561.91 15.11L1561.91 56.11L1526.4 76.61L1490.89 56.11L1490.89 15.11zM1526.4 117.61L1561.91 138.11L1561.91 179.11L1526.4 199.61L1490.89 179.11L1490.89 138.11zM1526.4 240.61L1561.91 261.11L1561.91 302.11L1526.4 322.61L1490.89 302.11L1490.89 261.11zM1526.4 363.61L1561.91 384.11L1561.91 425.11L1526.4 445.61L1490.89 425.11L1490.89 384.11zM1561.91 425.11L1597.41 445.61L1597.41 486.61L1561.91 507.11L1526.4 486.61L1526.4 445.61zM1526.4 978.61L1561.91 999.11L1561.91 1040.11L1526.4 1060.61L1490.89 1040.11L1490.89 999.11zM1597.41 -5.39L1632.92 15.11L1632.92 56.11L1597.41 76.61L1561.91 56.11L1561.91 15.11zM1632.92 548.11L1668.43 568.61L1668.43 609.61L1632.92 630.11L1597.41 609.61L1597.41 568.61zM1597.41 609.61L1632.92 630.11L1632.92 671.11L1597.41 691.61L1561.91 671.11L1561.91 630.11zM1597.41 978.61L1632.92 999.11L1632.92 1040.11L1597.41 1060.61L1561.91 1040.11L1561.91 999.11zM1703.94 302.11L1739.45 322.61L1739.45 363.61L1703.94 384.11L1668.43 363.61L1668.43 322.61zM1703.94 671.11L1739.45 691.61L1739.45 732.61L1703.94 753.11L1668.43 732.61L1668.43 691.61zM1668.43 732.61L1703.94 753.11L1703.94 794.11L1668.43 814.61L1632.92 794.11L1632.92 753.11zM1668.43 855.61L1703.94 876.11L1703.94 917.11L1668.43 937.61L1632.92 917.11L1632.92 876.11zM1739.45 117.61L1774.95 138.11L1774.95 179.11L1739.45 199.61L1703.94 179.11L1703.94 138.11zM1739.45 363.61L1774.95 384.11L1774.95 425.11L1739.45 445.61L1703.94 425.11L1703.94 384.11zM1774.95 425.11L1810.46 445.61L1810.46 486.61L1774.95 507.11L1739.45 486.61L1739.45 445.61zM1774.95 794.11L1810.46 814.61L1810.46 855.61L1774.95 876.11L1739.45 855.61L1739.45 814.61zM1810.46 240.61L1845.97 261.11L1845.97 302.11L1810.46 322.61L1774.95 302.11L1774.95 261.11zM1845.97 548.11L1881.48 568.61L1881.48 609.61L1845.97 630.11L1810.46 609.61L1810.46 568.61zM1845.97 794.11L1881.48 814.61L1881.48 855.61L1845.97 876.11L1810.46 855.61L1810.46 814.61zM1810.46 978.61L1845.97 999.11L1845.97 1040.11L1810.46 1060.61L1774.95 1040.11L1774.95 999.11zM1916.99 179.11L1952.49 199.61L1952.49 240.61L1916.99 261.11L1881.48 240.61L1881.48 199.61zM1916.99 548.11L1952.49 568.61L1952.49 609.61L1916.99 630.11L1881.48 609.61L1881.48 568.61zM1916.99 671.11L1952.49 691.61L1952.49 732.61L1916.99 753.11L1881.48 732.61L1881.48 691.61zM1952.49 363.61L1988 384.11L1988 425.11L1952.49 445.61L1916.99 425.11L1916.99 384.11zM1988 794.11L2023.51 814.61L2023.51 855.61L1988 876.11L1952.49 855.61L1952.49 814.61zM1988 917.11L2023.51 937.61L2023.51 978.61L1988 999.11L1952.49 978.61L1952.49 937.61zM1952.49 978.61L1988 999.11L1988 1040.11L1952.49 1060.61L1916.99 1040.11L1916.99 999.11zM2023.51 -5.39L2059.02 15.11L2059.02 56.11L2023.51 76.61L1988 56.11L1988 15.11zM2059.02 179.11L2094.53 199.61L2094.53 240.61L2059.02 261.11L2023.51 240.61L2023.51 199.61zM2023.51 240.61L2059.02 261.11L2059.02 302.11L2023.51 322.61L1988 302.11L1988 261.11zM2059.02 548.11L2094.53 568.61L2094.53 609.61L2059.02 630.11L2023.51 609.61L2023.51 568.61zM2023.51 609.61L2059.02 630.11L2059.02 671.11L2023.51 691.61L1988 671.11L1988 630.11zM2023.51 855.61L2059.02 876.11L2059.02 917.11L2023.51 937.61L1988 917.11L1988 876.11zM2059.02 917.11L2094.53 937.61L2094.53 978.61L2059.02 999.11L2023.51 978.61L2023.51 937.61z" stroke="rgba(142, 182, 223, 0.93)" stroke-width="2"></path></g><defs><mask id="SvgjsMask1360"><rect width="2000" height="1000" fill="#ffffff"></rect></mask></defs></svg>