<svg id="visual" viewBox="0 0 2000 600" width="2000" height="600" xmlns="http://www.w3.org/2000/svg" xmlns:xlink="http://www.w3.org/1999/xlink" version="1.1"><path d="M0 217L87 217L87 123L174 123L174 161L261 161L261 110L348 110L348 153L435 153L435 211L522 211L522 156L609 156L609 169L696 169L696 157L783 157L783 106L870 106L870 186L957 186L957 223L1043 223L1043 129L1130 129L1130 217L1217 217L1217 168L1304 168L1304 213L1391 213L1391 149L1478 149L1478 215L1565 215L1565 127L1652 127L1652 210L1739 210L1739 156L1826 156L1826 147L1913 147L1913 124L2000 124L2000 206L2000 0L2000 0L1913 0L1913 0L1826 0L1826 0L1739 0L1739 0L1652 0L1652 0L1565 0L1565 0L1478 0L1478 0L1391 0L1391 0L1304 0L1304 0L1217 0L1217 0L1130 0L1130 0L1043 0L1043 0L957 0L957 0L870 0L870 0L783 0L783 0L696 0L696 0L609 0L609 0L522 0L522 0L435 0L435 0L348 0L348 0L261 0L261 0L174 0L174 0L87 0L87 0L0 0Z" fill="#00f0ff"></path><path d="M0 146L87 146L87 115L174 115L174 198L261 198L261 139L348 139L348 198L435 198L435 100L522 100L522 184L609 184L609 94L696 94L696 128L783 128L783 184L870 184L870 164L957 164L957 160L1043 160L1043 140L1130 140L1130 91L1217 91L1217 169L1304 169L1304 152L1391 152L1391 102L1478 102L1478 169L1565 169L1565 131L1652 131L1652 137L1739 137L1739 178L1826 178L1826 134L1913 134L1913 99L2000 99L2000 159L2000 0L2000 0L1913 0L1913 0L1826 0L1826 0L1739 0L1739 0L1652 0L1652 0L1565 0L1565 0L1478 0L1478 0L1391 0L1391 0L1304 0L1304 0L1217 0L1217 0L1130 0L1130 0L1043 0L1043 0L957 0L957 0L870 0L870 0L783 0L783 0L696 0L696 0L609 0L609 0L522 0L522 0L435 0L435 0L348 0L348 0L261 0L261 0L174 0L174 0L87 0L87 0L0 0Z" fill="#00e0eb"></path><path d="M0 155L87 155L87 153L174 153L174 94L261 94L261 121L348 121L348 97L435 97L435 123L522 123L522 155L609 155L609 89L696 89L696 130L783 130L783 96L870 96L870 175L957 175L957 91L1043 91L1043 157L1130 157L1130 122L1217 122L1217 95L1304 95L1304 107L1391 107L1391 143L1478 143L1478 95L1565 95L1565 131L1652 131L1652 174L1739 174L1739 186L1826 186L1826 174L1913 174L1913 93L2000 93L2000 102L2000 0L2000 0L1913 0L1913 0L1826 0L1826 0L1739 0L1739 0L1652 0L1652 0L1565 0L1565 0L1478 0L1478 0L1391 0L1391 0L1304 0L1304 0L1217 0L1217 0L1130 0L1130 0L1043 0L1043 0L957 0L957 0L870 0L870 0L783 0L783 0L696 0L696 0L609 0L609 0L522 0L522 0L435 0L435 0L348 0L348 0L261 0L261 0L174 0L174 0L87 0L87 0L0 0Z" fill="#00d1d8"></path><path d="M0 83L87 83L87 74L174 74L174 159L261 159L261 101L348 101L348 122L435 122L435 75L522 75L522 140L609 140L609 135L696 135L696 164L783 164L783 154L870 154L870 110L957 110L957 150L1043 150L1043 112L1130 112L1130 145L1217 145L1217 137L1304 137L1304 93L1391 93L1391 91L1478 91L1478 165L1565 165L1565 105L1652 105L1652 147L1739 147L1739 142L1826 142L1826 91L1913 91L1913 169L2000 169L2000 139L2000 0L2000 0L1913 0L1913 0L1826 0L1826 0L1739 0L1739 0L1652 0L1652 0L1565 0L1565 0L1478 0L1478 0L1391 0L1391 0L1304 0L1304 0L1217 0L1217 0L1130 0L1130 0L1043 0L1043 0L957 0L957 0L870 0L870 0L783 0L783 0L696 0L696 0L609 0L609 0L522 0L522 0L435 0L435 0L348 0L348 0L261 0L261 0L174 0L174 0L87 0L87 0L0 0Z" fill="#01c2c5"></path><path d="M0 131L87 131L87 89L174 89L174 123L261 123L261 147L348 147L348 89L435 89L435 80L522 80L522 95L609 95L609 66L696 66L696 84L783 84L783 98L870 98L870 67L957 67L957 64L1043 64L1043 105L1130 105L1130 79L1217 79L1217 150L1304 150L1304 136L1391 136L1391 72L1478 72L1478 137L1565 137L1565 114L1652 114L1652 140L1739 140L1739 139L1826 139L1826 125L1913 125L1913 101L2000 101L2000 97L2000 0L2000 0L1913 0L1913 0L1826 0L1826 0L1739 0L1739 0L1652 0L1652 0L1565 0L1565 0L1478 0L1478 0L1391 0L1391 0L1304 0L1304 0L1217 0L1217 0L1130 0L1130 0L1043 0L1043 0L957 0L957 0L870 0L870 0L783 0L783 0L696 0L696 0L609 0L609 0L522 0L522 0L435 0L435 0L348 0L348 0L261 0L261 0L174 0L174 0L87 0L87 0L0 0Z" fill="#03b2b2"></path><path d="M0 80L87 80L87 124L174 124L174 105L261 105L261 57L348 57L348 105L435 105L435 75L522 75L522 94L609 94L609 76L696 76L696 87L783 87L783 130L870 130L870 96L957 96L957 55L1043 55L1043 83L1130 83L1130 94L1217 94L1217 111L1304 111L1304 66L1391 66L1391 62L1478 62L1478 122L1565 122L1565 132L1652 132L1652 112L1739 112L1739 124L1826 124L1826 113L1913 113L1913 67L2000 67L2000 103L2000 0L2000 0L1913 0L1913 0L1826 0L1826 0L1739 0L1739 0L1652 0L1652 0L1565 0L1565 0L1478 0L1478 0L1391 0L1391 0L1304 0L1304 0L1217 0L1217 0L1130 0L1130 0L1043 0L1043 0L957 0L957 0L870 0L870 0L783 0L783 0L696 0L696 0L609 0L609 0L522 0L522 0L435 0L435 0L348 0L348 0L261 0L261 0L174 0L174 0L87 0L87 0L0 0Z" fill="#04a3a1"></path><path d="M0 86L87 86L87 66L174 66L174 106L261 106L261 96L348 96L348 61L435 61L435 98L522 98L522 51L609 51L609 107L696 107L696 73L783 73L783 55L870 55L870 97L957 97L957 76L1043 76L1043 54L1130 54L1130 84L1217 84L1217 118L1304 118L1304 48L1391 48L1391 110L1478 110L1478 100L1565 100L1565 61L1652 61L1652 50L1739 50L1739 104L1826 104L1826 95L1913 95L1913 77L2000 77L2000 69L2000 0L2000 0L1913 0L1913 0L1826 0L1826 0L1739 0L1739 0L1652 0L1652 0L1565 0L1565 0L1478 0L1478 0L1391 0L1391 0L1304 0L1304 0L1217 0L1217 0L1130 0L1130 0L1043 0L1043 0L957 0L957 0L870 0L870 0L783 0L783 0L696 0L696 0L609 0L609 0L522 0L522 0L435 0L435 0L348 0L348 0L261 0L261 0L174 0L174 0L87 0L87 0L0 0Z" fill="#059590"></path><path d="M0 101L87 101L87 60L174 60L174 67L261 67L261 64L348 64L348 90L435 90L435 90L522 90L522 51L609 51L609 96L696 96L696 69L783 69L783 45L870 45L870 59L957 59L957 38L1043 38L1043 71L1130 71L1130 101L1217 101L1217 63L1304 63L1304 100L1391 100L1391 101L1478 101L1478 79L1565 79L1565 39L1652 39L1652 83L1739 83L1739 83L1826 83L1826 64L1913 64L1913 65L2000 65L2000 48L2000 0L2000 0L1913 0L1913 0L1826 0L1826 0L1739 0L1739 0L1652 0L1652 0L1565 0L1565 0L1478 0L1478 0L1391 0L1391 0L1304 0L1304 0L1217 0L1217 0L1130 0L1130 0L1043 0L1043 0L957 0L957 0L870 0L870 0L783 0L783 0L696 0L696 0L609 0L609 0L522 0L522 0L435 0L435 0L348 0L348 0L261 0L261 0L174 0L174 0L87 0L87 0L0 0Z" fill="#06867f"></path><path d="M0 84L87 84L87 40L174 40L174 50L261 50L261 64L348 64L348 84L435 84L435 43L522 43L522 66L609 66L609 68L696 68L696 29L783 29L783 51L870 51L870 55L957 55L957 53L1043 53L1043 54L1130 54L1130 73L1217 73L1217 39L1304 39L1304 36L1391 36L1391 84L1478 84L1478 40L1565 40L1565 41L1652 41L1652 71L1739 71L1739 66L1826 66L1826 42L1913 42L1913 62L2000 62L2000 61L2000 0L2000 0L1913 0L1913 0L1826 0L1826 0L1739 0L1739 0L1652 0L1652 0L1565 0L1565 0L1478 0L1478 0L1391 0L1391 0L1304 0L1304 0L1217 0L1217 0L1130 0L1130 0L1043 0L1043 0L957 0L957 0L870 0L870 0L783 0L783 0L696 0L696 0L609 0L609 0L522 0L522 0L435 0L435 0L348 0L348 0L261 0L261 0L174 0L174 0L87 0L87 0L0 0Z" fill="#05786f"></path><path d="M0 50L87 50L87 61L174 61L174 62L261 62L261 47L348 47L348 51L435 51L435 33L522 33L522 58L609 58L609 56L696 56L696 52L783 52L783 26L870 26L870 33L957 33L957 38L1043 38L1043 35L1130 35L1130 50L1217 50L1217 32L1304 32L1304 24L1391 24L1391 62L1478 62L1478 58L1565 58L1565 25L1652 25L1652 54L1739 54L1739 45L1826 45L1826 67L1913 67L1913 26L2000 26L2000 32L2000 0L2000 0L1913 0L1913 0L1826 0L1826 0L1739 0L1739 0L1652 0L1652 0L1565 0L1565 0L1478 0L1478 0L1391 0L1391 0L1304 0L1304 0L1217 0L1217 0L1130 0L1130 0L1043 0L1043 0L957 0L957 0L870 0L870 0L783 0L783 0L696 0L696 0L609 0L609 0L522 0L522 0L435 0L435 0L348 0L348 0L261 0L261 0L174 0L174 0L87 0L87 0L0 0Z" fill="#056a60"></path><path d="M0 19L87 19L87 12L174 12L174 26L261 26L261 36L348 36L348 14L435 14L435 19L522 19L522 16L609 16L609 19L696 19L696 32L783 32L783 31L870 31L870 25L957 25L957 32L1043 32L1043 37L1130 37L1130 14L1217 14L1217 48L1304 48L1304 41L1391 41L1391 33L1478 33L1478 13L1565 13L1565 35L1652 35L1652 21L1739 21L1739 24L1826 24L1826 22L1913 22L1913 24L2000 24L2000 22L2000 0L2000 0L1913 0L1913 0L1826 0L1826 0L1739 0L1739 0L1652 0L1652 0L1565 0L1565 0L1478 0L1478 0L1391 0L1391 0L1304 0L1304 0L1217 0L1217 0L1130 0L1130 0L1043 0L1043 0L957 0L957 0L870 0L870 0L783 0L783 0L696 0L696 0L609 0L609 0L522 0L522 0L435 0L435 0L348 0L348 0L261 0L261 0L174 0L174 0L87 0L87 0L0 0Z" fill="#035c52"></path><path d="M0 32L87 32L87 29L174 29L174 16L261 16L261 23L348 23L348 16L435 16L435 8L522 8L522 21L609 21L609 30L696 30L696 16L783 16L783 15L870 15L870 21L957 21L957 20L1043 20L1043 7L1130 7L1130 11L1217 11L1217 18L1304 18L1304 21L1391 21L1391 27L1478 27L1478 8L1565 8L1565 18L1652 18L1652 19L1739 19L1739 4L1826 4L1826 32L1913 32L1913 9L2000 9L2000 26L2000 0L2000 0L1913 0L1913 0L1826 0L1826 0L1739 0L1739 0L1652 0L1652 0L1565 0L1565 0L1478 0L1478 0L1391 0L1391 0L1304 0L1304 0L1217 0L1217 0L1130 0L1130 0L1043 0L1043 0L957 0L957 0L870 0L870 0L783 0L783 0L696 0L696 0L609 0L609 0L522 0L522 0L435 0L435 0L348 0L348 0L261 0L261 0L174 0L174 0L87 0L87 0L0 0Z" fill="#024f44"></path></svg>