<svg id="visual" viewBox="0 0 2000 600" width="2000" height="600" xmlns="http://www.w3.org/2000/svg" xmlns:xlink="http://www.w3.org/1999/xlink" version="1.1"><path d="M0 381L87 381L87 475L174 475L174 437L261 437L261 488L348 488L348 445L435 445L435 387L522 387L522 442L609 442L609 429L696 429L696 441L783 441L783 492L870 492L870 412L957 412L957 375L1043 375L1043 469L1130 469L1130 381L1217 381L1217 430L1304 430L1304 385L1391 385L1391 449L1478 449L1478 383L1565 383L1565 471L1652 471L1652 388L1739 388L1739 442L1826 442L1826 451L1913 451L1913 474L2000 474L2000 392L2000 601L2000 601L1913 601L1913 601L1826 601L1826 601L1739 601L1739 601L1652 601L1652 601L1565 601L1565 601L1478 601L1478 601L1391 601L1391 601L1304 601L1304 601L1217 601L1217 601L1130 601L1130 601L1043 601L1043 601L957 601L957 601L870 601L870 601L783 601L783 601L696 601L696 601L609 601L609 601L522 601L522 601L435 601L435 601L348 601L348 601L261 601L261 601L174 601L174 601L87 601L87 601L0 601Z" fill="#00f0ff"></path><path d="M0 452L87 452L87 483L174 483L174 400L261 400L261 459L348 459L348 400L435 400L435 498L522 498L522 414L609 414L609 504L696 504L696 470L783 470L783 414L870 414L870 434L957 434L957 438L1043 438L1043 458L1130 458L1130 507L1217 507L1217 429L1304 429L1304 446L1391 446L1391 496L1478 496L1478 429L1565 429L1565 467L1652 467L1652 461L1739 461L1739 420L1826 420L1826 464L1913 464L1913 499L2000 499L2000 439L2000 601L2000 601L1913 601L1913 601L1826 601L1826 601L1739 601L1739 601L1652 601L1652 601L1565 601L1565 601L1478 601L1478 601L1391 601L1391 601L1304 601L1304 601L1217 601L1217 601L1130 601L1130 601L1043 601L1043 601L957 601L957 601L870 601L870 601L783 601L783 601L696 601L696 601L609 601L609 601L522 601L522 601L435 601L435 601L348 601L348 601L261 601L261 601L174 601L174 601L87 601L87 601L0 601Z" fill="#00e0eb"></path><path d="M0 443L87 443L87 445L174 445L174 504L261 504L261 477L348 477L348 501L435 501L435 475L522 475L522 443L609 443L609 509L696 509L696 468L783 468L783 502L870 502L870 423L957 423L957 507L1043 507L1043 441L1130 441L1130 476L1217 476L1217 503L1304 503L1304 491L1391 491L1391 455L1478 455L1478 503L1565 503L1565 467L1652 467L1652 424L1739 424L1739 412L1826 412L1826 424L1913 424L1913 505L2000 505L2000 496L2000 601L2000 601L1913 601L1913 601L1826 601L1826 601L1739 601L1739 601L1652 601L1652 601L1565 601L1565 601L1478 601L1478 601L1391 601L1391 601L1304 601L1304 601L1217 601L1217 601L1130 601L1130 601L1043 601L1043 601L957 601L957 601L870 601L870 601L783 601L783 601L696 601L696 601L609 601L609 601L522 601L522 601L435 601L435 601L348 601L348 601L261 601L261 601L174 601L174 601L87 601L87 601L0 601Z" fill="#00d1d8"></path><path d="M0 515L87 515L87 524L174 524L174 439L261 439L261 497L348 497L348 476L435 476L435 523L522 523L522 458L609 458L609 463L696 463L696 434L783 434L783 444L870 444L870 488L957 488L957 448L1043 448L1043 486L1130 486L1130 453L1217 453L1217 461L1304 461L1304 505L1391 505L1391 507L1478 507L1478 433L1565 433L1565 493L1652 493L1652 451L1739 451L1739 456L1826 456L1826 507L1913 507L1913 429L2000 429L2000 459L2000 601L2000 601L1913 601L1913 601L1826 601L1826 601L1739 601L1739 601L1652 601L1652 601L1565 601L1565 601L1478 601L1478 601L1391 601L1391 601L1304 601L1304 601L1217 601L1217 601L1130 601L1130 601L1043 601L1043 601L957 601L957 601L870 601L870 601L783 601L783 601L696 601L696 601L609 601L609 601L522 601L522 601L435 601L435 601L348 601L348 601L261 601L261 601L174 601L174 601L87 601L87 601L0 601Z" fill="#01c2c5"></path><path d="M0 467L87 467L87 509L174 509L174 475L261 475L261 451L348 451L348 509L435 509L435 518L522 518L522 503L609 503L609 532L696 532L696 514L783 514L783 500L870 500L870 531L957 531L957 534L1043 534L1043 493L1130 493L1130 519L1217 519L1217 448L1304 448L1304 462L1391 462L1391 526L1478 526L1478 461L1565 461L1565 484L1652 484L1652 458L1739 458L1739 459L1826 459L1826 473L1913 473L1913 497L2000 497L2000 501L2000 601L2000 601L1913 601L1913 601L1826 601L1826 601L1739 601L1739 601L1652 601L1652 601L1565 601L1565 601L1478 601L1478 601L1391 601L1391 601L1304 601L1304 601L1217 601L1217 601L1130 601L1130 601L1043 601L1043 601L957 601L957 601L870 601L870 601L783 601L783 601L696 601L696 601L609 601L609 601L522 601L522 601L435 601L435 601L348 601L348 601L261 601L261 601L174 601L174 601L87 601L87 601L0 601Z" fill="#03b2b2"></path><path d="M0 518L87 518L87 474L174 474L174 493L261 493L261 541L348 541L348 493L435 493L435 523L522 523L522 504L609 504L609 522L696 522L696 511L783 511L783 468L870 468L870 502L957 502L957 543L1043 543L1043 515L1130 515L1130 504L1217 504L1217 487L1304 487L1304 532L1391 532L1391 536L1478 536L1478 476L1565 476L1565 466L1652 466L1652 486L1739 486L1739 474L1826 474L1826 485L1913 485L1913 531L2000 531L2000 495L2000 601L2000 601L1913 601L1913 601L1826 601L1826 601L1739 601L1739 601L1652 601L1652 601L1565 601L1565 601L1478 601L1478 601L1391 601L1391 601L1304 601L1304 601L1217 601L1217 601L1130 601L1130 601L1043 601L1043 601L957 601L957 601L870 601L870 601L783 601L783 601L696 601L696 601L609 601L609 601L522 601L522 601L435 601L435 601L348 601L348 601L261 601L261 601L174 601L174 601L87 601L87 601L0 601Z" fill="#04a3a1"></path><path d="M0 512L87 512L87 532L174 532L174 492L261 492L261 502L348 502L348 537L435 537L435 500L522 500L522 547L609 547L609 491L696 491L696 525L783 525L783 543L870 543L870 501L957 501L957 522L1043 522L1043 544L1130 544L1130 514L1217 514L1217 480L1304 480L1304 550L1391 550L1391 488L1478 488L1478 498L1565 498L1565 537L1652 537L1652 548L1739 548L1739 494L1826 494L1826 503L1913 503L1913 521L2000 521L2000 529L2000 601L2000 601L1913 601L1913 601L1826 601L1826 601L1739 601L1739 601L1652 601L1652 601L1565 601L1565 601L1478 601L1478 601L1391 601L1391 601L1304 601L1304 601L1217 601L1217 601L1130 601L1130 601L1043 601L1043 601L957 601L957 601L870 601L870 601L783 601L783 601L696 601L696 601L609 601L609 601L522 601L522 601L435 601L435 601L348 601L348 601L261 601L261 601L174 601L174 601L87 601L87 601L0 601Z" fill="#059590"></path><path d="M0 497L87 497L87 538L174 538L174 531L261 531L261 534L348 534L348 508L435 508L435 508L522 508L522 547L609 547L609 502L696 502L696 529L783 529L783 553L870 553L870 539L957 539L957 560L1043 560L1043 527L1130 527L1130 497L1217 497L1217 535L1304 535L1304 498L1391 498L1391 497L1478 497L1478 519L1565 519L1565 559L1652 559L1652 515L1739 515L1739 515L1826 515L1826 534L1913 534L1913 533L2000 533L2000 550L2000 601L2000 601L1913 601L1913 601L1826 601L1826 601L1739 601L1739 601L1652 601L1652 601L1565 601L1565 601L1478 601L1478 601L1391 601L1391 601L1304 601L1304 601L1217 601L1217 601L1130 601L1130 601L1043 601L1043 601L957 601L957 601L870 601L870 601L783 601L783 601L696 601L696 601L609 601L609 601L522 601L522 601L435 601L435 601L348 601L348 601L261 601L261 601L174 601L174 601L87 601L87 601L0 601Z" fill="#06867f"></path><path d="M0 514L87 514L87 558L174 558L174 548L261 548L261 534L348 534L348 514L435 514L435 555L522 555L522 532L609 532L609 530L696 530L696 569L783 569L783 547L870 547L870 543L957 543L957 545L1043 545L1043 544L1130 544L1130 525L1217 525L1217 559L1304 559L1304 562L1391 562L1391 514L1478 514L1478 558L1565 558L1565 557L1652 557L1652 527L1739 527L1739 532L1826 532L1826 556L1913 556L1913 536L2000 536L2000 537L2000 601L2000 601L1913 601L1913 601L1826 601L1826 601L1739 601L1739 601L1652 601L1652 601L1565 601L1565 601L1478 601L1478 601L1391 601L1391 601L1304 601L1304 601L1217 601L1217 601L1130 601L1130 601L1043 601L1043 601L957 601L957 601L870 601L870 601L783 601L783 601L696 601L696 601L609 601L609 601L522 601L522 601L435 601L435 601L348 601L348 601L261 601L261 601L174 601L174 601L87 601L87 601L0 601Z" fill="#05786f"></path><path d="M0 548L87 548L87 537L174 537L174 536L261 536L261 551L348 551L348 547L435 547L435 565L522 565L522 540L609 540L609 542L696 542L696 546L783 546L783 572L870 572L870 565L957 565L957 560L1043 560L1043 563L1130 563L1130 548L1217 548L1217 566L1304 566L1304 574L1391 574L1391 536L1478 536L1478 540L1565 540L1565 573L1652 573L1652 544L1739 544L1739 553L1826 553L1826 531L1913 531L1913 572L2000 572L2000 566L2000 601L2000 601L1913 601L1913 601L1826 601L1826 601L1739 601L1739 601L1652 601L1652 601L1565 601L1565 601L1478 601L1478 601L1391 601L1391 601L1304 601L1304 601L1217 601L1217 601L1130 601L1130 601L1043 601L1043 601L957 601L957 601L870 601L870 601L783 601L783 601L696 601L696 601L609 601L609 601L522 601L522 601L435 601L435 601L348 601L348 601L261 601L261 601L174 601L174 601L87 601L87 601L0 601Z" fill="#056a60"></path><path d="M0 579L87 579L87 586L174 586L174 572L261 572L261 562L348 562L348 584L435 584L435 579L522 579L522 582L609 582L609 579L696 579L696 566L783 566L783 567L870 567L870 573L957 573L957 566L1043 566L1043 561L1130 561L1130 584L1217 584L1217 550L1304 550L1304 557L1391 557L1391 565L1478 565L1478 585L1565 585L1565 563L1652 563L1652 577L1739 577L1739 574L1826 574L1826 576L1913 576L1913 574L2000 574L2000 576L2000 601L2000 601L1913 601L1913 601L1826 601L1826 601L1739 601L1739 601L1652 601L1652 601L1565 601L1565 601L1478 601L1478 601L1391 601L1391 601L1304 601L1304 601L1217 601L1217 601L1130 601L1130 601L1043 601L1043 601L957 601L957 601L870 601L870 601L783 601L783 601L696 601L696 601L609 601L609 601L522 601L522 601L435 601L435 601L348 601L348 601L261 601L261 601L174 601L174 601L87 601L87 601L0 601Z" fill="#035c52"></path><path d="M0 566L87 566L87 569L174 569L174 582L261 582L261 575L348 575L348 582L435 582L435 590L522 590L522 577L609 577L609 568L696 568L696 582L783 582L783 583L870 583L870 577L957 577L957 578L1043 578L1043 591L1130 591L1130 587L1217 587L1217 580L1304 580L1304 577L1391 577L1391 571L1478 571L1478 590L1565 590L1565 580L1652 580L1652 579L1739 579L1739 594L1826 594L1826 566L1913 566L1913 589L2000 589L2000 572L2000 601L2000 601L1913 601L1913 601L1826 601L1826 601L1739 601L1739 601L1652 601L1652 601L1565 601L1565 601L1478 601L1478 601L1391 601L1391 601L1304 601L1304 601L1217 601L1217 601L1130 601L1130 601L1043 601L1043 601L957 601L957 601L870 601L870 601L783 601L783 601L696 601L696 601L609 601L609 601L522 601L522 601L435 601L435 601L348 601L348 601L261 601L261 601L174 601L174 601L87 601L87 601L0 601Z" fill="#024f44"></path></svg>